<mxfile host="app.diagrams.net" modified="2024-04-06T19:45:13.409Z" agent="Mozilla/5.0 (Macintosh; Intel Mac OS X 10_15_7) AppleWebKit/537.36 (KHTML, like Gecko) Chrome/121.0.0.0 Safari/537.36" etag="CExFtA8itQs2nXsx4xil" version="24.2.2" type="onedrive">
  <diagram name="第 1 页" id="tM6t7vS76mIx5nxMkh-z">
    <mxGraphModel grid="1" page="1" gridSize="10" guides="1" tooltips="1" connect="1" arrows="1" fold="1" pageScale="1" pageWidth="1200" pageHeight="500" math="0" shadow="0">
      <root>
        <mxCell id="0" />
        <mxCell id="1" parent="0" />
        <mxCell id="M5WA7xJpAliksB-nWC_Y-7" style="edgeStyle=none;rounded=0;orthogonalLoop=1;jettySize=auto;html=1;" edge="1" parent="1" source="M5WA7xJpAliksB-nWC_Y-1" target="M5WA7xJpAliksB-nWC_Y-3">
          <mxGeometry relative="1" as="geometry" />
        </mxCell>
        <mxCell id="M5WA7xJpAliksB-nWC_Y-8" style="edgeStyle=none;rounded=0;orthogonalLoop=1;jettySize=auto;html=1;entryX=0.971;entryY=0.277;entryDx=0;entryDy=0;entryPerimeter=0;" edge="1" parent="1" source="M5WA7xJpAliksB-nWC_Y-1" target="M5WA7xJpAliksB-nWC_Y-2">
          <mxGeometry relative="1" as="geometry" />
        </mxCell>
        <mxCell id="M5WA7xJpAliksB-nWC_Y-9" style="edgeStyle=none;rounded=0;orthogonalLoop=1;jettySize=auto;html=1;entryX=0.781;entryY=0.075;entryDx=0;entryDy=0;entryPerimeter=0;" edge="1" parent="1" source="M5WA7xJpAliksB-nWC_Y-1" target="M5WA7xJpAliksB-nWC_Y-4">
          <mxGeometry relative="1" as="geometry" />
        </mxCell>
        <mxCell id="M5WA7xJpAliksB-nWC_Y-1" value="Dunetts Syndrome" style="ellipse;whiteSpace=wrap;html=1;aspect=fixed;" vertex="1" parent="1">
          <mxGeometry x="480" y="80" width="70" height="70" as="geometry" />
        </mxCell>
        <mxCell id="M5WA7xJpAliksB-nWC_Y-2" value="Sloepnea" style="ellipse;whiteSpace=wrap;html=1;aspect=fixed;" vertex="1" parent="1">
          <mxGeometry x="170" y="250" width="70" height="70" as="geometry" />
        </mxCell>
        <mxCell id="M5WA7xJpAliksB-nWC_Y-3" value="Foriennditis" style="ellipse;whiteSpace=wrap;html=1;aspect=fixed;" vertex="1" parent="1">
          <mxGeometry x="550" y="250" width="70" height="70" as="geometry" />
        </mxCell>
        <mxCell id="M5WA7xJpAliksB-nWC_Y-4" value="Degar&lt;br&gt;Spots" style="ellipse;whiteSpace=wrap;html=1;aspect=fixed;" vertex="1" parent="1">
          <mxGeometry x="360" y="250" width="70" height="70" as="geometry" />
        </mxCell>
        <mxCell id="M5WA7xJpAliksB-nWC_Y-10" style="edgeStyle=none;rounded=0;orthogonalLoop=1;jettySize=auto;html=1;" edge="1" parent="1" source="M5WA7xJpAliksB-nWC_Y-5" target="M5WA7xJpAliksB-nWC_Y-2">
          <mxGeometry relative="1" as="geometry" />
        </mxCell>
        <mxCell id="M5WA7xJpAliksB-nWC_Y-5" value="&lt;font style=&quot;&quot;&gt;&lt;span style=&quot;font-size: 8px;&quot;&gt;TRIMONO-HT/S&lt;/span&gt;&lt;br&gt;&lt;font style=&quot;font-size: 12px;&quot;&gt;GENE&lt;/font&gt;&lt;br&gt;&lt;/font&gt;" style="ellipse;whiteSpace=wrap;html=1;aspect=fixed;" vertex="1" parent="1">
          <mxGeometry x="270" y="85" width="70" height="70" as="geometry" />
        </mxCell>
        <mxCell id="M5WA7xJpAliksB-nWC_Y-11" value="P(DR = 0) = 0.50&lt;br&gt;P(DR = 1) = 0.25&lt;br&gt;P(DR = 2) = 0.25" style="rounded=0;whiteSpace=wrap;html=1;" vertex="1" parent="1">
          <mxGeometry x="560" y="85" width="120" height="55" as="geometry" />
        </mxCell>
        <mxCell id="M5WA7xJpAliksB-nWC_Y-12" value="P(TG = True) = 0.10&lt;br&gt;P(TG = False) = 0.90" style="rounded=0;whiteSpace=wrap;html=1;" vertex="1" parent="1">
          <mxGeometry x="130" y="100" width="130" height="40" as="geometry" />
        </mxCell>
        <mxCell id="M5WA7xJpAliksB-nWC_Y-13" value="&lt;div&gt;P(S = True | TG = True,&amp;nbsp;&lt;span style=&quot;background-color: initial;&quot;&gt;DR = 0&lt;/span&gt;&lt;span style=&quot;background-color: initial;&quot;&gt;) = 0.01&lt;/span&gt;&lt;/div&gt;&lt;div&gt;P(S = True | TG = True,&amp;nbsp;&lt;span style=&quot;background-color: initial;&quot;&gt;DR = 1&lt;/span&gt;&lt;span style=&quot;background-color: initial;&quot;&gt;) = 0.01&lt;/span&gt;&lt;/div&gt;&lt;div&gt;P(S = True | TG = True,&amp;nbsp;&lt;span style=&quot;background-color: initial;&quot;&gt;DR = 2&lt;/span&gt;&lt;span style=&quot;background-color: initial;&quot;&gt;) = 0.01&lt;/span&gt;&lt;/div&gt;P(S = True | TG = False, DR = 0) = 0.03&lt;br&gt;P(S = True | TG = False, DR = 1) =&amp;nbsp;0.485&lt;br&gt;P(S = True | TG = False, DR = 2) =&amp;nbsp;0.485" style="rounded=0;whiteSpace=wrap;html=1;" vertex="1" parent="1">
          <mxGeometry x="10" y="330" width="230" height="100" as="geometry" />
        </mxCell>
        <mxCell id="M5WA7xJpAliksB-nWC_Y-14" value="P(DS = True | DR = 0) = 0.05&lt;br&gt;P(DS = True | DR = 1) =&amp;nbsp;0.25&lt;br&gt;P(DS = True | DR = 2) = 0.70" style="rounded=0;whiteSpace=wrap;html=1;" vertex="1" parent="1">
          <mxGeometry x="297.5" y="330" width="195" height="60" as="geometry" />
        </mxCell>
        <mxCell id="M5WA7xJpAliksB-nWC_Y-15" value="P(F = True | DR = 0) = 0.05&lt;br&gt;P(F = True | DR = 1) = 0.70&lt;br&gt;P(F = True | DR = 2) = 0.25" style="rounded=0;whiteSpace=wrap;html=1;" vertex="1" parent="1">
          <mxGeometry x="550" y="330" width="195" height="60" as="geometry" />
        </mxCell>
      </root>
    </mxGraphModel>
  </diagram>
</mxfile>
